<svg width="800" height="800" viewBox="0 0 800 800" fill="none" xmlns="http://www.w3.org/2000/svg">
<path fill-rule="evenodd" clip-rule="evenodd" d="M613.283 613.327C596.455 630.11 569.191 630.11 552.342 613.327L399.989 460.995L247.637 613.327C230.809 630.11 203.523 630.11 186.696 613.327C169.868 596.33 169.868 569.221 186.696 552.224L339.048 399.891L186.696 247.561C169.868 230.779 169.868 203.452 186.696 186.67C203.523 169.888 230.809 169.888 247.637 186.67L399.989 339.003L552.342 186.67C569.191 169.888 596.455 169.888 613.283 186.67C630.132 203.452 630.132 230.779 613.283 247.561L460.931 399.891L613.283 552.224C630.132 569.221 630.132 596.33 613.283 613.327ZM521.872 399.891L643.775 278.112C677.408 244.547 677.408 189.899 643.775 156.335C610.098 122.555 555.527 122.555 521.872 156.335L399.989 278.112L278.107 156.335C244.474 122.555 189.902 122.555 156.225 156.335C122.592 189.899 122.592 244.547 156.225 278.112L278.107 399.891L156.225 521.886C122.592 555.45 122.592 610.101 156.225 643.665C189.902 677.445 244.474 677.445 278.107 643.665L399.989 521.886L521.872 643.665C555.527 677.445 610.098 677.445 643.775 643.665C677.408 610.101 677.408 555.45 643.775 521.886L521.872 399.891Z" fill="#4E1818"/>
</svg>
